<svg width="22" height="22" viewBox="0 0 22 22" fill="none" xmlns="http://www.w3.org/2000/svg">
<path d="M2.94054 7.8225C3.18448 7.57864 3.51528 7.44165 3.8602 7.44165C4.20512 7.44165 4.53592 7.57864 4.77985 7.8225L11.2187 14.2614L17.6576 7.8225C17.9029 7.58555 18.2315 7.45444 18.5726 7.45741C18.9136 7.46037 19.2399 7.59717 19.481 7.83835C19.7222 8.07952 19.859 8.40577 19.862 8.74683C19.8649 9.0879 19.7338 9.41648 19.4969 9.66181L12.1384 17.0203C11.8944 17.2642 11.5636 17.4012 11.2187 17.4012C10.8738 17.4012 10.543 17.2642 10.2991 17.0203L2.94054 9.66181C2.69668 9.41787 2.55969 9.08707 2.55969 8.74215C2.55969 8.39723 2.69668 8.06643 2.94054 7.8225Z" fill="black"/>
</svg>
