<svg width="168" height="34" viewBox="0 0 168 34" fill="none" xmlns="http://www.w3.org/2000/svg">
<path d="M32.7148 4.90857H36.4151V12.6993C37.0112 12.2416 37.6792 11.865 38.419 11.5705C39.1588 11.2761 39.9189 11.1283 40.7002 11.1283C43.0847 11.1283 44.8574 11.8101 46.0182 13.1737C47.179 14.5374 47.7605 16.4743 47.7605 18.9846V27.8232H43.9985V18.9846C43.9985 17.7402 43.7314 16.7485 43.197 16.0059C42.6626 15.2645 41.7577 14.8926 40.4835 14.8926C39.9076 14.8926 39.3935 14.9689 38.9422 15.1214C38.4897 15.274 38.0946 15.4647 37.7555 15.6948C37.4165 15.9236 37.1336 16.1585 36.9079 16.3981C36.6811 16.6388 36.5172 16.8558 36.4151 17.0524V27.822H32.7148V4.90857Z" fill="#00529C"/>
<path d="M49.6096 19.6402C49.6096 18.4613 49.8207 17.354 50.2417 16.3181C50.6627 15.2823 51.233 14.3812 51.9526 13.6171C52.6722 12.8531 53.5198 12.2475 54.4965 11.8005C55.4721 11.3535 56.5161 11.1295 57.6253 11.1295C58.7345 11.1295 59.7785 11.3535 60.7541 11.8005C61.7297 12.2487 62.5784 12.8543 63.298 13.6171C64.0176 14.3812 64.5879 15.2811 65.0089 16.3181C65.4299 17.3552 65.641 18.4625 65.641 19.6402C65.641 20.8191 65.4299 21.9264 65.0089 22.9634C64.5879 24.0005 64.0165 24.9004 63.298 25.6645C62.5784 26.4285 61.7308 27.0341 60.7541 27.4811C59.7774 27.9281 58.7345 28.1521 57.6253 28.1521C56.5161 28.1521 55.4721 27.9281 54.4965 27.4811C53.5198 27.0341 52.6722 26.4285 51.9526 25.6645C51.233 24.9004 50.6627 24.0005 50.2417 22.9634C49.8207 21.9264 49.6096 20.8179 49.6096 19.6402ZM57.6264 24.3211C58.263 24.3211 58.8389 24.2019 59.353 23.9611C59.8661 23.7216 60.3084 23.3938 60.6789 22.9789C61.0494 22.5641 61.3311 22.073 61.5265 21.5057C61.7218 20.9383 61.8195 20.3161 61.8195 19.6402C61.8195 18.9644 61.7218 18.3421 61.5265 17.7748C61.3311 17.2074 61.0482 16.7163 60.6789 16.3015C60.3084 15.8867 59.8672 15.5601 59.353 15.3193C58.8389 15.0797 58.263 14.9593 57.6264 14.9593C56.9888 14.9593 56.414 15.0797 55.8998 15.3193C55.3856 15.5601 54.9444 15.8867 54.574 16.3015C54.2035 16.7163 53.9161 17.2074 53.7106 17.7748C53.5052 18.3421 53.4019 18.9644 53.4019 19.6402C53.4019 20.3173 53.5041 20.9395 53.7106 21.5057C53.9161 22.073 54.2035 22.5641 54.574 22.9789C54.9433 23.3938 55.3856 23.7216 55.8998 23.9611C56.4128 24.2007 56.9888 24.3211 57.6264 24.3211Z" fill="#00529C"/>
<path d="M67.7998 27.8232V11.4561H71.5V12.6671C72.0344 12.2309 72.6406 11.8649 73.3187 11.5705C73.9967 11.2761 74.7164 11.1283 75.4764 11.1283C77.8193 11.1283 79.5257 11.8816 80.5945 13.3871C81.1906 12.7113 81.9708 12.1653 82.9374 11.7505C83.9029 11.3357 84.8998 11.1283 85.9281 11.1283C88.0443 11.1283 89.6485 11.7779 90.7375 13.076C91.8264 14.3753 92.372 16.2348 92.372 18.6569V27.8232H88.6112V18.6569C88.6112 17.5006 88.3496 16.584 87.8254 15.907C87.3011 15.2311 86.577 14.8926 85.6519 14.8926C84.9739 14.8926 84.398 15.0022 83.9253 15.2204C83.4527 15.4385 83.0721 15.6781 82.7847 15.9403C82.4962 16.2026 82.2807 16.4529 82.137 16.6937C81.9933 16.9345 81.9214 17.0656 81.9214 17.087V27.8244H78.1606V18.6581C78.1606 17.5018 77.9091 16.5852 77.4051 15.9082C76.901 15.2323 76.1668 14.8938 75.2002 14.8938C74.5423 14.8938 73.9878 14.9915 73.5353 15.1882C73.0829 15.3849 72.7136 15.609 72.4251 15.8593C72.1365 16.1108 71.9165 16.3504 71.7627 16.5792C71.6089 16.8081 71.5213 16.9559 71.5011 17.0215V27.8244H67.7998V27.8232Z" fill="#00529C"/>
<path d="M110.1 22.9134C109.751 23.7859 109.298 24.55 108.744 25.2044C108.189 25.8588 107.572 26.4047 106.893 26.841C106.215 27.2772 105.491 27.605 104.72 27.8232C103.949 28.0413 103.183 28.1509 102.423 28.1509C101.313 28.1509 100.275 27.9269 99.3089 27.4799C98.3423 27.0329 97.5048 26.4273 96.7964 25.6633C96.0869 24.8992 95.5323 23.9993 95.1315 22.9623C94.7307 21.9264 94.5298 20.8179 94.5298 19.639C94.5298 18.4602 94.7307 17.3528 95.1315 16.317C95.5323 15.2812 96.0869 14.38 96.7964 13.616C97.5059 12.8519 98.3423 12.2464 99.3089 11.7994C100.274 11.3524 101.313 11.1283 102.423 11.1283C103.533 11.1283 104.54 11.3083 105.444 11.6683C106.348 12.0282 107.129 12.5301 107.787 13.1737C108.445 13.8174 108.984 14.5707 109.406 15.4325C109.827 16.2943 110.11 17.2169 110.254 18.1991C110.335 18.7009 110.387 19.198 110.407 19.6879C110.428 20.179 110.438 20.7082 110.438 21.2756H98.4141C98.4759 21.7119 98.6353 22.1326 98.8924 22.5355C99.1495 22.9396 99.4627 23.2889 99.8332 23.5833C100.203 23.8777 100.615 24.1125 101.067 24.2877C101.518 24.463 101.971 24.55 102.423 24.55C103.081 24.55 103.63 24.4677 104.072 24.3044C104.513 24.1411 104.878 23.9504 105.167 23.7311C105.496 23.4915 105.763 23.2185 105.968 22.9122H110.1V22.9134ZM106.369 18.2325C106.307 17.7748 106.179 17.3385 105.984 16.9237C105.789 16.5089 105.522 16.1441 105.183 15.8271C104.844 15.5112 104.443 15.2597 103.98 15.0737C103.518 14.889 102.999 14.796 102.423 14.796C101.889 14.796 101.39 14.8938 100.928 15.0904C100.465 15.2871 100.054 15.5434 99.694 15.8593C99.3336 16.1763 99.0361 16.5363 98.8003 16.9392C98.5634 17.3433 98.4153 17.7736 98.3535 18.2325H106.369Z" fill="#00529C"/>
<path d="M115.895 22.259C115.915 22.8264 116.09 23.3389 116.419 23.7978C116.748 24.2556 117.241 24.4856 117.899 24.4856C118.433 24.4856 118.89 24.333 119.271 24.0279C119.651 23.7228 119.841 23.3079 119.841 22.7835C119.841 22.2817 119.604 21.905 119.131 21.6547C118.659 21.4044 117.887 21.1254 116.819 20.8203C116.284 20.6677 115.776 20.471 115.293 20.2314C114.81 19.9919 114.378 19.6807 113.999 19.2981C113.618 18.9167 113.321 18.4745 113.105 17.9726C112.889 17.4708 112.782 16.882 112.782 16.2049C112.782 15.4194 112.921 14.715 113.198 14.0939C113.475 13.4717 113.85 12.9437 114.323 12.5062C114.796 12.07 115.35 11.7374 115.988 11.5074C116.624 11.2785 117.303 11.1641 118.023 11.1641C118.743 11.1641 119.421 11.3059 120.059 11.5896C120.695 11.8733 121.251 12.2559 121.724 12.7351C122.196 13.2155 122.571 13.7721 122.848 14.4051C123.126 15.038 123.265 15.6936 123.265 16.3694H119.534C119.514 15.8676 119.354 15.4802 119.056 15.2073C118.758 14.9343 118.413 14.7984 118.023 14.7984C117.633 14.7984 117.288 14.9355 116.99 15.2073C116.692 15.4802 116.544 15.8128 116.544 16.2061C116.544 16.6865 116.779 17.0679 117.253 17.3516C117.726 17.6353 118.558 17.9524 119.75 18.3004C120.284 18.453 120.783 18.6497 121.245 18.8893C121.708 19.1301 122.109 19.4245 122.448 19.7725C122.787 20.1218 123.054 20.5414 123.249 21.0325C123.445 21.5236 123.542 22.1076 123.542 22.7835C123.542 23.5034 123.393 24.1864 123.095 24.8289C122.797 25.4726 122.396 26.04 121.893 26.5311C121.389 27.0222 120.793 27.4095 120.105 27.6932C119.415 27.9769 118.681 28.1188 117.9 28.1188C117.16 28.1188 116.456 27.9769 115.788 27.6932C115.12 27.4095 114.529 27.0114 114.015 26.4977C113.501 25.9851 113.08 25.3689 112.751 24.6477C112.422 23.9278 112.237 23.1315 112.197 22.2578H115.895V22.259Z" fill="#F37021"/>
<path d="M125.083 10.7028H128.721V12.6016C129.317 12.1427 129.964 11.772 130.663 11.4883C131.361 11.2046 132.101 11.0627 132.883 11.0627C133.972 11.0627 135.004 11.2809 135.981 11.7171C136.957 12.1534 137.8 12.7482 138.509 13.5015C139.219 14.2549 139.778 15.1441 140.19 16.1692C140.601 17.1728 140.806 18.2587 140.806 19.4257C140.806 20.5938 140.601 21.6904 140.19 22.7155C139.779 23.7418 139.213 24.6251 138.494 25.3665C137.794 26.1305 136.962 26.7301 135.997 27.1676C135.03 27.6038 133.993 27.822 132.883 27.822C132.101 27.822 131.361 27.6801 130.663 27.3964C129.964 27.1127 129.317 26.742 128.721 26.2831V33.9761H125.083V10.7028ZM128.721 21.9634C128.988 22.3555 129.307 22.706 129.676 23.0111C129.985 23.2948 130.396 23.5463 130.91 23.7645C131.423 23.9826 132.031 24.0922 132.729 24.0922C133.365 24.0922 133.941 23.9611 134.455 23.7001C134.99 23.4605 135.452 23.1327 135.843 22.7179C136.234 22.3031 136.541 21.812 136.768 21.2446C136.994 20.6772 137.107 20.0717 137.107 19.428C137.107 18.7844 136.994 18.1896 136.768 17.6437C136.563 17.0763 136.254 16.5852 135.843 16.1704C135.452 15.7556 134.995 15.423 134.471 15.1715C133.947 14.9212 133.367 14.7948 132.729 14.7948C132.091 14.7948 131.531 14.8878 131.048 15.0726C130.566 15.2585 130.169 15.4599 129.862 15.6781C129.533 15.9189 129.276 16.1584 129.09 16.398C128.905 16.6162 128.782 16.7699 128.721 16.8558V21.9634Z" fill="#F37021"/>
<path d="M141.947 19.6402C141.947 18.4613 142.158 17.354 142.579 16.3181C143 15.2823 143.57 14.3812 144.29 13.6171C145.009 12.8531 145.857 12.2475 146.834 11.8005C147.809 11.3535 148.853 11.1295 149.964 11.1295C151.074 11.1295 152.117 11.3535 153.092 11.8005C154.068 12.2487 154.917 12.8543 155.636 13.6171C156.356 14.3812 156.926 15.2811 157.347 16.3181C157.768 17.3552 157.979 18.4625 157.979 19.6402C157.979 20.8191 157.768 21.9264 157.347 22.9634C156.925 24.0005 156.355 24.9004 155.636 25.6645C154.917 26.4285 154.069 27.0341 153.092 27.4811C152.116 27.9281 151.073 28.1521 149.964 28.1521C148.853 28.1521 147.81 27.9281 146.834 27.4811C145.857 27.0341 145.009 26.4285 144.29 25.6645C143.57 24.9004 143 24.0005 142.579 22.9634C142.157 21.9264 141.947 20.8179 141.947 19.6402ZM149.962 24.3211C150.599 24.3211 151.175 24.2019 151.689 23.9611C152.202 23.7216 152.644 23.3938 153.015 22.9789C153.384 22.5641 153.667 22.073 153.863 21.5057C154.058 20.9383 154.156 20.3161 154.156 19.6402C154.156 18.9644 154.058 18.3421 153.863 17.7748C153.667 17.2074 153.384 16.7163 153.015 16.3015C152.644 15.8867 152.203 15.5601 151.689 15.3193C151.175 15.0797 150.599 14.9593 149.962 14.9593C149.325 14.9593 148.749 15.0797 148.236 15.3193C147.722 15.5601 147.28 15.8867 146.91 16.3015C146.54 16.7163 146.252 17.2074 146.047 17.7748C145.841 18.3421 145.738 18.9644 145.738 19.6402C145.738 20.3173 145.84 20.9395 146.047 21.5057C146.252 22.073 146.54 22.5641 146.91 22.9789C147.279 23.3938 147.722 23.7216 148.236 23.9611C148.75 24.2007 149.326 24.3211 149.962 24.3211Z" fill="#F37021"/>
<path d="M161.185 7.16736H164.885V11.4561H167.351V15.1882H164.885V22.0624C164.885 23.4153 165.491 24.0923 166.703 24.0923H167.968V27.8244H166.211C164.648 27.8244 163.421 27.3989 162.526 26.5478C161.632 25.6967 161.185 24.2461 161.185 22.1947V15.1894H158.903V11.4573H161.185V7.16736Z" fill="#F37021"/>
<path d="M2.26436 12.4693L6.0836 14.8103L0.120117 11.1545L2.26436 12.4693Z" fill="#F37021"/>
<path d="M12.4176 12.4693L7.34096 9.35822L12.4176 6.24595L17.493 9.35822L20.9205 11.4585L24.7139 13.784V11.3941V9.13293V7.56071L22.5696 6.24595L17.493 3.13369L12.4176 0.0226135L7.34096 3.13369L2.26437 6.24595L0.120117 7.56071V11.1545L6.0836 14.8103L7.34096 15.5816L12.4176 12.4693Z" fill="#F37021"/>
<path d="M20.9205 17.6818L15.845 14.5707L10.7684 17.6818L15.845 20.7941L17.493 21.8061L12.4187 24.9171L10.2767 23.6036L2.62024 18.9107L0.120117 17.3779V20.0074V22.6369V24.2091V27.8232H4.37718H8.58036H16.2547H17.1596H17.1585H17.1596H24.7139V26.2307V22.6369V20.0074L20.9205 17.6818Z" fill="#00529C"/>
</svg>
