<svg width="200" height="58" viewBox="0 0 200 58" fill="none" xmlns="http://www.w3.org/2000/svg">
<rect width="200" height="58" rx="8" fill="white"/>
<g clip-path="url(#clip0_51_25)">
<path d="M48.7148 16.9086H52.4151V24.6993C53.0112 24.2416 53.6792 23.865 54.419 23.5705C55.1588 23.2761 55.9189 23.1283 56.7002 23.1283C59.0847 23.1283 60.8574 23.8101 62.0182 25.1737C63.179 26.5374 63.7605 28.4743 63.7605 30.9846V39.8232H59.9985V30.9846C59.9985 29.7402 59.7314 28.7485 59.197 28.0059C58.6626 27.2645 57.7577 26.8926 56.4835 26.8926C55.9076 26.8926 55.3935 26.9689 54.9422 27.1214C54.4897 27.274 54.0946 27.4647 53.7555 27.6948C53.4165 27.9236 53.1336 28.1585 52.9079 28.3981C52.6811 28.6388 52.5172 28.8558 52.4151 29.0524V39.822H48.7148V16.9086Z" fill="#00529C"/>
<path d="M65.6096 31.6402C65.6096 30.4613 65.8207 29.354 66.2417 28.3181C66.6627 27.2823 67.233 26.3812 67.9526 25.6171C68.6722 24.8531 69.5198 24.2475 70.4965 23.8005C71.4721 23.3535 72.5161 23.1295 73.6253 23.1295C74.7345 23.1295 75.7785 23.3535 76.7541 23.8005C77.7297 24.2487 78.5784 24.8543 79.298 25.6171C80.0176 26.3812 80.5879 27.2811 81.0089 28.3181C81.4299 29.3552 81.641 30.4625 81.641 31.6402C81.641 32.8191 81.4299 33.9264 81.0089 34.9634C80.5879 36.0005 80.0165 36.9004 79.298 37.6645C78.5784 38.4285 77.7308 39.0341 76.7541 39.4811C75.7774 39.9281 74.7345 40.1521 73.6253 40.1521C72.5161 40.1521 71.4721 39.9281 70.4965 39.4811C69.5198 39.0341 68.6722 38.4285 67.9526 37.6645C67.233 36.9004 66.6627 36.0005 66.2417 34.9634C65.8207 33.9264 65.6096 32.8179 65.6096 31.6402ZM73.6264 36.3211C74.263 36.3211 74.8389 36.2019 75.353 35.9611C75.8661 35.7216 76.3084 35.3938 76.6789 34.9789C77.0494 34.5641 77.3311 34.073 77.5265 33.5057C77.7218 32.9383 77.8195 32.3161 77.8195 31.6402C77.8195 30.9644 77.7218 30.3421 77.5265 29.7748C77.3311 29.2074 77.0482 28.7163 76.6789 28.3015C76.3084 27.8867 75.8672 27.5601 75.353 27.3193C74.8389 27.0797 74.263 26.9593 73.6264 26.9593C72.9888 26.9593 72.414 27.0797 71.8998 27.3193C71.3856 27.5601 70.9444 27.8867 70.574 28.3015C70.2035 28.7163 69.9161 29.2074 69.7106 29.7748C69.5052 30.3421 69.4019 30.9644 69.4019 31.6402C69.4019 32.3173 69.5041 32.9395 69.7106 33.5057C69.9161 34.073 70.2035 34.5641 70.574 34.9789C70.9433 35.3938 71.3856 35.7216 71.8998 35.9611C72.4128 36.2007 72.9888 36.3211 73.6264 36.3211Z" fill="#00529C"/>
<path d="M83.7998 39.8232V23.4561H87.5V24.6671C88.0344 24.2309 88.6406 23.8649 89.3187 23.5705C89.9967 23.2761 90.7164 23.1283 91.4764 23.1283C93.8193 23.1283 95.5257 23.8816 96.5945 25.3871C97.1906 24.7113 97.9708 24.1653 98.9374 23.7505C99.9029 23.3357 100.9 23.1283 101.928 23.1283C104.044 23.1283 105.649 23.7779 106.738 25.076C107.826 26.3753 108.372 28.2348 108.372 30.6569V39.8232H104.611V30.6569C104.611 29.5006 104.35 28.584 103.825 27.907C103.301 27.2311 102.577 26.8926 101.652 26.8926C100.974 26.8926 100.398 27.0022 99.9253 27.2204C99.4527 27.4385 99.0721 27.6781 98.7847 27.9403C98.4962 28.2026 98.2807 28.4529 98.137 28.6937C97.9933 28.9345 97.9214 29.0656 97.9214 29.087V39.8244H94.1606V30.6581C94.1606 29.5018 93.9091 28.5852 93.4051 27.9082C92.901 27.2323 92.1668 26.8938 91.2002 26.8938C90.5423 26.8938 89.9878 26.9915 89.5353 27.1882C89.0829 27.3849 88.7136 27.609 88.4251 27.8593C88.1365 28.1108 87.9165 28.3504 87.7627 28.5792C87.6089 28.8081 87.5213 28.9559 87.5011 29.0215V39.8244H83.7998V39.8232Z" fill="#00529C"/>
<path d="M126.1 34.9134C125.751 35.7859 125.298 36.55 124.744 37.2044C124.189 37.8588 123.572 38.4047 122.893 38.841C122.215 39.2772 121.491 39.605 120.72 39.8232C119.949 40.0413 119.183 40.1509 118.423 40.1509C117.313 40.1509 116.275 39.9269 115.309 39.4799C114.342 39.0329 113.505 38.4273 112.796 37.6633C112.087 36.8992 111.532 35.9993 111.131 34.9623C110.731 33.9264 110.53 32.8179 110.53 31.639C110.53 30.4602 110.731 29.3528 111.131 28.317C111.532 27.2812 112.087 26.38 112.796 25.616C113.506 24.8519 114.342 24.2464 115.309 23.7994C116.274 23.3524 117.313 23.1283 118.423 23.1283C119.533 23.1283 120.54 23.3083 121.444 23.6683C122.348 24.0282 123.129 24.5301 123.787 25.1737C124.445 25.8174 124.984 26.5707 125.406 27.4325C125.827 28.2943 126.11 29.2169 126.254 30.1991C126.335 30.7009 126.387 31.198 126.407 31.6879C126.428 32.179 126.438 32.7082 126.438 33.2756H114.414C114.476 33.7119 114.635 34.1326 114.892 34.5355C115.149 34.9396 115.463 35.2889 115.833 35.5833C116.203 35.8777 116.615 36.1125 117.067 36.2877C117.518 36.463 117.971 36.55 118.423 36.55C119.081 36.55 119.63 36.4677 120.072 36.3044C120.513 36.1411 120.878 35.9504 121.167 35.7311C121.496 35.4915 121.763 35.2185 121.968 34.9122H126.1V34.9134ZM122.369 30.2325C122.307 29.7748 122.179 29.3385 121.984 28.9237C121.789 28.5089 121.522 28.1441 121.183 27.8271C120.844 27.5112 120.443 27.2597 119.98 27.0737C119.518 26.889 118.999 26.796 118.423 26.796C117.889 26.796 117.39 26.8938 116.928 27.0904C116.465 27.2871 116.054 27.5434 115.694 27.8593C115.334 28.1763 115.036 28.5363 114.8 28.9392C114.563 29.3433 114.415 29.7736 114.353 30.2325H122.369Z" fill="#00529C"/>
<path d="M131.895 34.259C131.915 34.8264 132.09 35.3389 132.419 35.7978C132.748 36.2556 133.241 36.4856 133.899 36.4856C134.433 36.4856 134.89 36.333 135.271 36.0279C135.651 35.7228 135.841 35.3079 135.841 34.7835C135.841 34.2817 135.604 33.905 135.131 33.6547C134.659 33.4044 133.887 33.1254 132.819 32.8203C132.284 32.6677 131.776 32.471 131.293 32.2314C130.81 31.9919 130.378 31.6807 129.999 31.2981C129.618 30.9167 129.321 30.4745 129.105 29.9726C128.889 29.4708 128.782 28.882 128.782 28.2049C128.782 27.4194 128.921 26.715 129.198 26.0939C129.475 25.4717 129.85 24.9437 130.323 24.5062C130.796 24.07 131.35 23.7374 131.988 23.5074C132.624 23.2785 133.303 23.1641 134.023 23.1641C134.743 23.1641 135.421 23.3059 136.059 23.5896C136.695 23.8733 137.251 24.2559 137.724 24.7351C138.196 25.2155 138.571 25.7721 138.848 26.4051C139.126 27.038 139.265 27.6936 139.265 28.3694H135.534C135.514 27.8676 135.354 27.4802 135.056 27.2073C134.758 26.9343 134.413 26.7984 134.023 26.7984C133.633 26.7984 133.288 26.9355 132.99 27.2073C132.692 27.4802 132.544 27.8128 132.544 28.2061C132.544 28.6865 132.779 29.0679 133.253 29.3516C133.726 29.6353 134.558 29.9524 135.75 30.3004C136.284 30.453 136.783 30.6497 137.245 30.8893C137.708 31.1301 138.109 31.4245 138.448 31.7725C138.787 32.1218 139.054 32.5414 139.249 33.0325C139.445 33.5236 139.542 34.1076 139.542 34.7835C139.542 35.5034 139.393 36.1864 139.095 36.8289C138.797 37.4726 138.396 38.04 137.893 38.5311C137.389 39.0222 136.793 39.4095 136.105 39.6932C135.415 39.9769 134.681 40.1188 133.9 40.1188C133.16 40.1188 132.456 39.9769 131.788 39.6932C131.12 39.4095 130.529 39.0114 130.015 38.4977C129.501 37.9851 129.08 37.3689 128.751 36.6477C128.422 35.9278 128.237 35.1315 128.197 34.2578H131.895V34.259Z" fill="#F37021"/>
<path d="M141.083 22.7028H144.721V24.6016C145.317 24.1427 145.964 23.772 146.663 23.4883C147.361 23.2046 148.101 23.0627 148.883 23.0627C149.972 23.0627 151.004 23.2809 151.981 23.7171C152.957 24.1534 153.8 24.7482 154.509 25.5015C155.219 26.2549 155.778 27.1441 156.19 28.1692C156.601 29.1728 156.806 30.2587 156.806 31.4257C156.806 32.5938 156.601 33.6904 156.19 34.7155C155.779 35.7418 155.213 36.6251 154.494 37.3665C153.794 38.1305 152.962 38.7301 151.997 39.1676C151.03 39.6038 149.993 39.822 148.883 39.822C148.101 39.822 147.361 39.6801 146.663 39.3964C145.964 39.1127 145.317 38.742 144.721 38.2831V45.9761H141.083V22.7028ZM144.721 33.9634C144.988 34.3555 145.307 34.706 145.676 35.0111C145.985 35.2948 146.396 35.5463 146.91 35.7645C147.423 35.9826 148.031 36.0922 148.729 36.0922C149.365 36.0922 149.941 35.9611 150.455 35.7001C150.99 35.4605 151.452 35.1327 151.843 34.7179C152.234 34.3031 152.541 33.812 152.768 33.2446C152.994 32.6772 153.107 32.0717 153.107 31.428C153.107 30.7844 152.994 30.1896 152.768 29.6437C152.563 29.0763 152.254 28.5852 151.843 28.1704C151.452 27.7556 150.995 27.423 150.471 27.1715C149.947 26.9212 149.367 26.7948 148.729 26.7948C148.091 26.7948 147.531 26.8878 147.048 27.0726C146.566 27.2585 146.169 27.4599 145.862 27.6781C145.533 27.9189 145.276 28.1584 145.09 28.398C144.905 28.6162 144.782 28.7699 144.721 28.8558V33.9634Z" fill="#F37021"/>
<path d="M157.947 31.6402C157.947 30.4613 158.158 29.354 158.579 28.3181C159 27.2823 159.57 26.3812 160.29 25.6171C161.009 24.8531 161.857 24.2475 162.834 23.8005C163.809 23.3535 164.853 23.1295 165.964 23.1295C167.074 23.1295 168.117 23.3535 169.092 23.8005C170.068 24.2487 170.917 24.8543 171.636 25.6171C172.356 26.3812 172.926 27.2811 173.347 28.3181C173.768 29.3552 173.979 30.4625 173.979 31.6402C173.979 32.8191 173.768 33.9264 173.347 34.9634C172.925 36.0005 172.355 36.9004 171.636 37.6645C170.917 38.4285 170.069 39.0341 169.092 39.4811C168.116 39.9281 167.073 40.1521 165.964 40.1521C164.853 40.1521 163.81 39.9281 162.834 39.4811C161.857 39.0341 161.009 38.4285 160.29 37.6645C159.57 36.9004 159 36.0005 158.579 34.9634C158.157 33.9264 157.947 32.8179 157.947 31.6402ZM165.962 36.3211C166.599 36.3211 167.175 36.2019 167.689 35.9611C168.202 35.7216 168.644 35.3938 169.015 34.9789C169.384 34.5641 169.667 34.073 169.863 33.5057C170.058 32.9383 170.156 32.3161 170.156 31.6402C170.156 30.9644 170.058 30.3421 169.863 29.7748C169.667 29.2074 169.384 28.7163 169.015 28.3015C168.644 27.8867 168.203 27.5601 167.689 27.3193C167.175 27.0797 166.599 26.9593 165.962 26.9593C165.325 26.9593 164.749 27.0797 164.236 27.3193C163.722 27.5601 163.28 27.8867 162.91 28.3015C162.54 28.7163 162.252 29.2074 162.047 29.7748C161.841 30.3421 161.738 30.9644 161.738 31.6402C161.738 32.3173 161.84 32.9395 162.047 33.5057C162.252 34.073 162.54 34.5641 162.91 34.9789C163.279 35.3938 163.722 35.7216 164.236 35.9611C164.75 36.2007 165.326 36.3211 165.962 36.3211Z" fill="#F37021"/>
<path d="M177.185 19.1674H180.885V23.4561H183.351V27.1882H180.885V34.0624C180.885 35.4153 181.491 36.0923 182.703 36.0923H183.968V39.8244H182.211C180.648 39.8244 179.421 39.3989 178.526 38.5478C177.632 37.6967 177.185 36.2461 177.185 34.1947V27.1894H174.903V23.4573H177.185V19.1674Z" fill="#F37021"/>
<path d="M18.2644 24.4693L22.0836 26.8103L16.1201 23.1545L18.2644 24.4693Z" fill="#F37021"/>
<path d="M28.4176 24.4693L23.341 21.3582L28.4176 18.2459L33.493 21.3582L36.9205 23.4585L40.7139 25.784V23.3941V21.1329V19.5607L38.5696 18.2459L33.493 15.1337L28.4176 12.0226L23.341 15.1337L18.2644 18.2459L16.1201 19.5607V23.1545L22.0836 26.8103L23.341 27.5816L28.4176 24.4693Z" fill="#F37021"/>
<path d="M36.9205 29.6818L31.845 26.5707L26.7684 29.6818L31.845 32.7941L33.493 33.8061L28.4187 36.9171L26.2767 35.6036L18.6202 30.9107L16.1201 29.3779V32.0074V34.6369V36.2091V39.8232H20.3772H24.5804H32.2547H33.1596H40.7139V38.2307V34.6369V32.0074L36.9205 29.6818Z" fill="#00529C"/>
</g>
<defs>
<clipPath id="clip0_51_25">
<rect width="168" height="34" fill="white" transform="translate(16 12)"/>
</clipPath>
</defs>
</svg>
