<svg width="40" height="40" viewBox="0 0 40 40" fill="none" xmlns="http://www.w3.org/2000/svg">
<path d="M20 13.3334L30 8.33337L20 3.33337V20" stroke="#012F57" stroke-width="2" stroke-linecap="round" stroke-linejoin="round"/>
<path d="M13.3334 19.9834L4.16669 25.2167C3.91019 25.3621 3.69685 25.5729 3.54842 25.8276C3.39998 26.0824 3.32178 26.3719 3.32178 26.6667C3.32178 26.9616 3.39998 27.2511 3.54842 27.5058C3.69685 27.7606 3.91019 27.9714 4.16669 28.1167L18.3334 36.2167C18.8401 36.5093 19.4149 36.6633 20 36.6633C20.5851 36.6633 21.16 36.5093 21.6667 36.2167L35.8334 28.1167C36.0899 27.9714 36.3032 27.7606 36.4516 27.5058C36.6001 27.2511 36.6783 26.9616 36.6783 26.6667C36.6783 26.3719 36.6001 26.0824 36.4516 25.8276C36.3032 25.5729 36.0899 25.3621 35.8334 25.2167L26.6667 20.0001M10.8167 21.4167L29.1834 31.9167M29.1834 21.4167L10.8334 31.9167" stroke="#012F57" stroke-width="2" stroke-linecap="round" stroke-linejoin="round"/>
</svg>
