<svg width="41" height="40" viewBox="0 0 41 40" fill="none" xmlns="http://www.w3.org/2000/svg">
<path d="M4.08325 31.6667V21.6667C4.08325 20.9167 4.23603 20.2362 4.54159 19.625C4.84714 19.0139 5.24992 18.4723 5.74992 18V13.3334C5.74992 11.9445 6.23603 10.7639 7.20825 9.79171C8.18047 8.81949 9.36103 8.33337 10.7499 8.33337H17.4166C18.0555 8.33337 18.6527 8.45171 19.2083 8.68837C19.7638 8.92504 20.2777 9.25115 20.7499 9.66671C21.2221 9.25004 21.736 8.92393 22.2916 8.68837C22.8471 8.45282 23.4444 8.33449 24.0833 8.33337H30.7499C32.1388 8.33337 33.3194 8.81949 34.2916 9.79171C35.2638 10.7639 35.7499 11.9445 35.7499 13.3334V18C36.2499 18.4723 36.6527 19.0139 36.9583 19.625C37.2638 20.2362 37.4166 20.9167 37.4166 21.6667V31.6667H34.0833V28.3334H7.41659V31.6667H4.08325ZM22.4166 16.6667H32.4166V13.3334C32.4166 12.8612 32.2566 12.4656 31.9366 12.1467C31.6166 11.8278 31.221 11.6678 30.7499 11.6667H24.0833C23.611 11.6667 23.2155 11.8267 22.8966 12.1467C22.5777 12.4667 22.4177 12.8623 22.4166 13.3334V16.6667ZM9.08325 16.6667H19.0833V13.3334C19.0833 12.8612 18.9233 12.4656 18.6033 12.1467C18.2833 11.8278 17.8877 11.6678 17.4166 11.6667H10.7499C10.2777 11.6667 9.88214 11.8267 9.56325 12.1467C9.24436 12.4667 9.08436 12.8623 9.08325 13.3334V16.6667ZM7.41659 25H34.0833V21.6667C34.0833 21.1945 33.9233 20.7989 33.6033 20.48C33.2833 20.1612 32.8877 20.0012 32.4166 20H9.08325C8.61103 20 8.21547 20.16 7.89659 20.48C7.5777 20.8 7.4177 21.1956 7.41659 21.6667V25Z" fill="#012F57"/>
</svg>
