<svg width="41" height="40" viewBox="0 0 41 40" fill="none" xmlns="http://www.w3.org/2000/svg">
<path d="M39.25 20C39.2513 18.5645 38.8995 17.1507 38.2254 15.8833C37.5513 14.6159 36.5758 13.5338 35.3848 12.7324C34.1938 11.931 32.824 11.4349 31.396 11.2879C29.968 11.1409 28.5258 11.3475 27.1966 11.8894C25.8673 12.4314 24.6918 13.2921 23.7736 14.3956C22.8555 15.4991 22.223 16.8116 21.9319 18.2172C21.6407 19.6229 21.6999 21.0786 22.1041 22.4561C22.5084 23.8335 23.2454 25.0903 24.25 26.1156V35C24.2498 35.2132 24.3042 35.4229 24.4079 35.6091C24.5117 35.7953 24.6613 35.952 24.8426 36.0641C25.0239 36.1762 25.2309 36.2401 25.4439 36.2496C25.6569 36.2592 25.8687 36.2141 26.0594 36.1187L30.5 33.8969L34.9406 36.1187C35.1313 36.2141 35.3431 36.2592 35.5561 36.2496C35.7691 36.2401 35.9761 36.1762 36.1574 36.0641C36.3387 35.952 36.4883 35.7953 36.5921 35.6091C36.6958 35.4229 36.7502 35.2132 36.75 35V26.1156C38.3532 24.4839 39.2511 22.2875 39.25 20ZM30.5 13.75C31.7361 13.75 32.9445 14.1166 33.9723 14.8033C35.0001 15.4901 35.8012 16.4662 36.2743 17.6082C36.7473 18.7503 36.8711 20.0069 36.6299 21.2193C36.3888 22.4317 35.7935 23.5453 34.9194 24.4194C34.0453 25.2935 32.9317 25.8887 31.7193 26.1299C30.5069 26.3711 29.2503 26.2473 28.1082 25.7742C26.9662 25.3012 25.9901 24.5001 25.3033 23.4723C24.6166 22.4445 24.25 21.2361 24.25 20C24.25 18.3424 24.9085 16.7527 26.0806 15.5806C27.2527 14.4085 28.8424 13.75 30.5 13.75ZM31.0594 31.3812C30.8857 31.2943 30.6942 31.2491 30.5 31.2491C30.3058 31.2491 30.1143 31.2943 29.9406 31.3812L26.75 32.9781V27.9047C27.9218 28.4612 29.2028 28.75 30.5 28.75C31.7972 28.75 33.0782 28.4612 34.25 27.9047V32.9781L31.0594 31.3812ZM21.75 30C21.75 30.3315 21.6183 30.6495 21.3839 30.8839C21.1495 31.1183 20.8315 31.25 20.5 31.25H6.75C6.08696 31.25 5.45107 30.9866 4.98223 30.5178C4.51339 30.0489 4.25 29.413 4.25 28.75V8.75C4.25 8.08696 4.51339 7.45107 4.98223 6.98223C5.45107 6.51339 6.08696 6.25 6.75 6.25H34.25C34.913 6.25 35.5489 6.51339 36.0178 6.98223C36.4866 7.45107 36.75 8.08696 36.75 8.75C36.75 9.08152 36.6183 9.39946 36.3839 9.63388C36.1495 9.8683 35.8315 10 35.5 10C35.1685 10 34.8505 9.8683 34.6161 9.63388C34.3817 9.39946 34.25 9.08152 34.25 8.75H6.75V28.75H20.5C20.8315 28.75 21.1495 28.8817 21.3839 29.1161C21.6183 29.3505 21.75 29.6685 21.75 30ZM19.25 21.25C19.25 21.5815 19.1183 21.8995 18.8839 22.1339C18.6495 22.3683 18.3315 22.5 18 22.5H11.75C11.4185 22.5 11.1005 22.3683 10.8661 22.1339C10.6317 21.8995 10.5 21.5815 10.5 21.25C10.5 20.9185 10.6317 20.6005 10.8661 20.3661C11.1005 20.1317 11.4185 20 11.75 20H18C18.3315 20 18.6495 20.1317 18.8839 20.3661C19.1183 20.6005 19.25 20.9185 19.25 21.25ZM19.25 16.25C19.25 16.5815 19.1183 16.8995 18.8839 17.1339C18.6495 17.3683 18.3315 17.5 18 17.5H11.75C11.4185 17.5 11.1005 17.3683 10.8661 17.1339C10.6317 16.8995 10.5 16.5815 10.5 16.25C10.5 15.9185 10.6317 15.6005 10.8661 15.3661C11.1005 15.1317 11.4185 15 11.75 15H18C18.3315 15 18.6495 15.1317 18.8839 15.3661C19.1183 15.6005 19.25 15.9185 19.25 16.25Z" fill="#012F57"/>
</svg>
