<svg width="40" height="40" viewBox="0 0 40 40" fill="none" xmlns="http://www.w3.org/2000/svg">
<path d="M5 21.805C5 21.6767 5 21.6117 5.00333 21.5583C5.02959 21.1545 5.20185 20.7741 5.48798 20.488C5.7741 20.2019 6.15455 20.0296 6.55833 20.0033C6.61333 20 6.675 20 6.805 20H33.195C33.3233 20 33.3867 20 33.4417 20.0033C33.8455 20.0296 34.2259 20.2019 34.512 20.488C34.7981 20.7741 34.9704 21.1545 34.9967 21.5583C35 21.6117 35 21.675 35 21.805C35 22.4633 35 22.7933 34.9767 23.1633C34.6283 28.6417 29.9717 33.4783 24.51 34.03C24.1417 34.0683 23.9267 34.0767 23.4967 34.0933C22.3317 34.1393 21.1659 34.1637 20 34.1667C18.9167 34.1667 17.7267 34.1383 16.5033 34.0933C16.0733 34.0767 15.8583 34.0683 15.4917 34.0317C10.0283 33.4783 5.37167 28.6417 5.025 23.1633C5 22.7933 5 22.4633 5 21.805Z" stroke="#012F57" stroke-width="1.5"/>
<path d="M9.99992 33.3333L8.33325 36.6667M29.9999 33.3333L31.6666 36.6667M3.33325 20H36.6666" stroke="#012F57" stroke-width="1.5" stroke-linecap="round"/>
<path d="M3.75 21.6667C3.75 21.9982 3.8817 22.3162 4.11612 22.5506C4.35054 22.785 4.66848 22.9167 5 22.9167C5.33152 22.9167 5.64946 22.785 5.88388 22.5506C6.1183 22.3162 6.25 21.9982 6.25 21.6667H3.75ZM10.5767 14.57L9.41333 15.0284C9.47487 15.1839 9.56701 15.3256 9.68428 15.4449C9.80156 15.5642 9.9416 15.6587 10.0961 15.7229C10.2506 15.7871 10.4164 15.8196 10.5837 15.8186C10.751 15.8175 10.9163 15.7829 11.07 15.7167L10.5767 14.57ZM20.51 10.2917L21.005 11.4417C21.3033 11.3132 21.5399 11.0737 21.6646 10.7738C21.7894 10.4739 21.7925 10.1372 21.6733 9.83504L20.51 10.2917ZM6.25 21.6667V7.30837H3.75V21.6667H6.25ZM8.975 4.58337C10.09 4.58337 11.0917 5.26171 11.505 6.29671L13.8267 5.36671C13.439 4.39724 12.7698 3.56782 11.9053 2.9823C11.0408 2.39678 10.0208 2.08367 8.97667 2.08337L8.975 4.58337ZM6.25 7.30837C6.25 5.80337 7.47 4.58337 8.975 4.58337L8.97667 2.08337C7.59091 2.08337 6.26024 2.63386 5.28037 3.61374C4.30049 4.59362 3.75 5.92262 3.75 7.30837H6.25ZM11.505 6.29671L12.1383 7.87671L14.4583 6.94837L13.8267 5.36671L11.505 6.29671ZM11.7383 14.1117C11.3191 13.0432 11.3274 11.8542 11.7617 10.7917L9.445 9.85004C8.76878 11.5077 8.75851 13.3621 9.41333 15.0284L11.7383 14.1117ZM20.0167 9.14504L10.0817 13.4217L11.07 15.7167L21.0033 11.44L20.0167 9.14504ZM17.1367 8.44671C18.1733 8.89004 18.945 9.72837 19.3483 10.75L21.6733 9.83504C21.3554 9.01542 20.8775 8.26565 20.2674 7.63269C19.6574 6.99972 18.9274 6.49457 18.12 6.14671L17.1367 8.44671ZM11.7617 10.7917C12.1526 9.80739 12.895 9.00489 13.845 8.53671L12.7517 6.29004C11.2472 7.02706 10.0692 8.29536 9.445 9.85004L11.7617 10.7917ZM13.845 8.53671C14.3547 8.2851 14.9129 8.14692 15.4811 8.13167C16.0494 8.11643 16.6142 8.2228 17.1367 8.44671L18.12 6.14671C17.2678 5.78232 16.3469 5.60799 15.4203 5.63244C14.4938 5.65689 13.5835 5.88121 12.7517 6.29004L13.845 8.53671Z" fill="#012F57"/>
</svg>
